<?xml version="1.0" encoding="UTF-8"?>
<svg width="48px" height="48px" viewBox="0 0 48 48" version="1.1" xmlns="http://www.w3.org/2000/svg" xmlns:xlink="http://www.w3.org/1999/xlink">
    <!-- Generator: Sketch 62 (91390) - https://sketch.com -->
    <title>003-farm copy</title>
    <desc>Created with Sketch.</desc>
    <g id="Page-1" stroke="none" stroke-width="1" fill="none" fill-rule="evenodd">
        <g id="Home-Theme-01" transform="translate(-214.000000, -1775.000000)" fill="#1D7260" fill-rule="nonzero">
            <g id="Main-Features-Section" transform="translate(0.000000, 1645.000000)">
                <g id="003-farm-copy" transform="translate(214.000000, 130.000000)">
                    <path d="M43.2,14.7056 L43.2,14.1104 L38.88,8.9256 L32,6.3456 L25.12,8.9256 L20.8,14.1104 L20.8,19.2 L12,19.2 L12,16 L12.1024,16 C13.6046,15.9979 14.8207,14.7785 14.8187,13.2763 C14.8185,13.1166 14.8042,12.9572 14.776,12.8 L13.8736,7.8336 C13.5973,6.357 12.1763,5.384 10.6997,5.6603 C9.5962,5.8667 8.7329,6.73 8.5264,7.8336 L7.624,12.8 C7.3589,14.2786 8.3427,15.6922 9.8213,15.9573 C9.9785,15.9855 10.1379,15.9998 10.2976,16 L10.4,16 L10.4,19.2 L4.8,19.2 L4.8,13.52 C6.6613,13.1375 7.9979,11.5002 8,9.6 L8,4 C8,1.7909 6.2091,0 4,0 C1.7909,0 0,1.7909 0,4 L0,9.6 C0.0021,11.5002 1.3387,13.1375 3.2,13.52 L3.2,19.2 L0,19.2 L0,48 L48,48 L48,17.1056 L43.2,14.7056 Z M22.4,14.6896 L26.08,10.2744 L32,8.0544 L37.92,10.2744 L41.6,14.6896 L41.6,19.2 L36,19.2 L36,14.4 L28,14.4 L28,19.2 L22.4,19.2 L22.4,14.6896 Z M34.4,16 L34.4,19.2 L32.8,19.2 L32.8,16 L34.4,16 Z M31.2,16 L31.2,19.2 L29.6,19.2 L29.6,16 L31.2,16 Z M10.2976,14.4 C9.679,14.3973 9.1798,13.8936 9.18258828,13.275 C9.1829,13.2107 9.1887,13.1465 9.2,13.0832 L10.1024,8.1176 C10.2211,7.5105 10.8094,7.1146 11.4165,7.2332 C11.8637,7.3206 12.2134,7.6703 12.3009,8.1176 L13.2,13.0832 C13.3087,13.6921 12.9032,14.2739 12.2942,14.3826 C12.2309,14.3939 12.1667,14.3997 12.1024,14.4 L12,14.4 L12,12.8 L10.4,12.8 L10.4,14.4 L10.2976,14.4 Z M1.6,9.6 L1.6,4 C1.6,2.6745 2.6745,1.6 4,1.6 C5.3255,1.6 6.4,2.6745 6.4,4 L6.4,9.6 C6.3958,10.6134 5.7555,11.515 4.8,11.8528 L4.8,8.8 L3.2,8.8 L3.2,11.8528 C2.2445,11.515 1.6042,10.6134 1.6,9.6 Z M1.6,20.8 L12.4688,20.8 L1.6,31.6688 L1.6,20.8 Z M1.6,33.9312 L14.7312,20.8 L15.332,20.8 L1.6,42.084 L1.6,33.9312 Z M1.6,46.4 L1.6,45.0352 L17.236,20.8 L18.036,20.8 L8.2496,46.4 L1.6,46.4 Z M9.9624,46.4 L19.7504,20.8 L20.6464,20.8 L16.1288,46.4 L9.9624,46.4 Z M23.2,46.4 L17.7536,46.4 L22.2712,20.8 L23.2,20.8 L23.2,46.4 Z M24.8,46.4 L24.8,20.8 L25.7288,20.8 L30.2464,46.4 L24.8,46.4 Z M31.8712,46.4 L27.3536,20.8 L28.2496,20.8 L38.0376,46.4 L31.8712,46.4 Z M46.4,46.4 L39.7504,46.4 L29.9624,20.8 L30.7624,20.8 L46.4,45.0352 L46.4,46.4 Z M46.4,42.084 L32.668,20.8 L33.2688,20.8 L46.4,33.9312 L46.4,42.084 Z M46.4,31.6688 L35.5312,20.8 L46.4,20.8 L46.4,31.6688 Z M46.4,19.2 L43.2,19.2 L43.2,16.4944 L46.4,18.0944 L46.4,19.2 Z" id="Shape"></path>
                    <rect id="Rectangle" x="31.2" y="10.4" width="1.6" height="1.6"></rect>
                    <path d="M20.4,0 C18.4118,0 16.8,1.6118 16.8,3.6 C16.8,5.5882 18.4118,7.2 20.4,7.2 C22.3882,7.2 24,5.5882 24,3.6 C24,1.6118 22.3882,0 20.4,0 Z M20.4,5.6 C19.2954,5.6 18.4,4.7046 18.4,3.6 C18.4,2.4954 19.2954,1.6 20.4,1.6 C21.5046,1.6 22.4,2.4954 22.4,3.6 C22.4,4.7046 21.5046,5.6 20.4,5.6 Z" id="Shape"></path>
                </g>
            </g>
        </g>
    </g>
</svg>