<?xml version="1.0" encoding="UTF-8"?>
<svg width="48px" height="48px" viewBox="0 0 48 48" version="1.1" xmlns="http://www.w3.org/2000/svg" xmlns:xlink="http://www.w3.org/1999/xlink">
    <!-- Generator: Sketch 62 (91390) - https://sketch.com -->
    <title>002-cannabis copy</title>
    <desc>Created with Sketch.</desc>
    <g id="Page-1" stroke="none" stroke-width="1" fill="none" fill-rule="evenodd">
        <g id="Home-Theme-01" transform="translate(-1177.000000, -1775.000000)" fill="#1D7260" fill-rule="nonzero">
            <g id="Main-Features-Section" transform="translate(0.000000, 1645.000000)">
                <g id="002-cannabis-copy" transform="translate(1177.000000, 130.000000)">
                    <path d="M47.990625,38.5570313 C47.9496563,38.3102812 47.7807188,38.1039375 47.547,38.0149687 C44.420625,36.82575 40.6169062,36.516375 36.836625,37.1438438 C33.1289062,37.759125 29.6916563,39.2350312 27.1319063,41.3061563 L25.4589375,41.58375 L28.273875,38.082 C32.432625,36.4509375 36.3955313,33.5644688 39.7450313,29.722875 C40.0002188,29.4301875 39.9698438,28.986 39.6771563,28.7308125 C39.3844688,28.475625 38.940375,28.506 38.6850938,28.7986875 C38.18025,29.3776875 37.6566563,29.935875 37.1179688,30.4722188 L34.1299688,30.7970625 L45.2356875,16.981875 C44.3435625,20.1826875 42.7708125,23.3859375 40.6058438,26.3817188 C40.3784063,26.6964375 40.4491875,27.1359375 40.7639063,27.3634688 C41.0785313,27.5909063 41.518125,27.5202188 41.7456563,27.2054063 C44.6869688,23.1354375 46.5871875,18.6849375 47.2408125,14.3348438 C47.2779375,14.0875313 47.181,13.8390938 46.9860938,13.6823438 C46.7911875,13.5256875 46.52775,13.4843438 46.2940313,13.5737813 C41.7190313,15.3259688 37.2598125,18.7037813 33.738,23.0848125 C30.2622188,27.4084688 27.9383438,32.4135 27.1782187,37.2005625 L24.7032188,40.2794063 L24.7032188,36.9620625 C27.6115312,31.8946875 29.2123125,25.4329688 29.2123125,18.7394063 C29.2123125,11.9720625 27.5769375,5.440875 24.6075,0.34884375 C24.4814062,0.13284375 24.250125,1.0658141e-14 24,1.0658141e-14 C23.749875,1.0658141e-14 23.5185938,0.13284375 23.3925937,0.3489375 C22.0542187,2.64403125 20.982,5.22853125 20.2058437,8.0304375 C20.10225,8.4046875 20.3215312,8.79215625 20.6957812,8.89575 C21.0698437,8.99934375 21.4574062,8.7800625 21.5610937,8.4058125 C22.0302187,6.7123125 22.611375,5.10375 23.296875,3.59690625 L23.296875,15.538875 L20.6222812,12.864375 C20.6972812,12.3576563 20.7814687,11.8542188 20.8759687,11.355 C20.94825,10.9735313 20.6974687,10.6055625 20.3159062,10.5332813 C19.9340625,10.461 19.5664687,10.7117813 19.4941875,11.0933438 C19.0254375,13.5689063 18.7876875,16.1415 18.7876875,18.7394063 C18.7876875,25.432875 20.3884687,31.8945938 23.2967812,36.9620625 L23.2967812,40.2792188 L20.8219687,37.2005625 C20.0618437,32.4135 17.737875,27.4084688 14.2621875,23.0848125 C10.740375,18.7037813 6.28125,15.3259688 1.70625,13.5737813 C1.47253125,13.48425 1.2091875,13.5256875 1.0141875,13.6823438 C0.81928125,13.8390938 0.72225,14.0875313 0.75946875,14.3348438 C1.48753125,19.1795625 3.828,24.2604375 7.34990625,28.6414688 C10.8255937,32.9652188 15.2143125,36.3105 19.726125,38.081625 L22.5413437,41.5836563 L20.868375,41.3060625 C18.308625,39.2349375 14.871375,37.759125 11.1636562,37.14375 C10.8556875,37.0926563 10.5435937,37.0470938 10.236,37.0082813 C9.8499375,36.9599063 9.49903125,37.2327188 9.45046875,37.6178438 C9.4018125,38.0031563 9.6748125,38.3548125 10.0600312,38.4034688 C10.3495312,38.4400313 10.6434375,38.482875 10.9334062,38.5309688 C13.3030312,38.92425 15.5475,39.6893438 17.48925,40.74525 L4.01484375,38.5090313 C4.9419375,38.3502188 5.9045625,38.2565625 6.882375,38.235375 C7.27059375,38.2269375 7.57846875,37.905375 7.57003125,37.5171563 C7.5616875,37.1289375 7.2429375,36.8218125 6.8518125,36.8295 C4.5748125,36.8789063 2.36221875,37.288875 0.4531875,38.0150625 C0.219375,38.1040313 0.05053125,38.310375 0.0095625,38.557125 C-0.03140625,38.803875 0.061875,39.0538125 0.25434375,39.2134688 C2.82890625,41.3487188 6.3286875,42.8702813 10.1090625,43.4976563 C11.3882812,43.71 12.66975,43.815 13.927125,43.815 C16.3139062,43.815 18.6120937,43.4353125 20.6369062,42.6932813 L23.296875,43.1346563 L23.296875,47.2970625 C23.296875,47.685375 23.6116875,48.0001875 24,48.0001875 C24.3883125,48.0001875 24.703125,47.685375 24.703125,47.2970625 L24.703125,43.1346563 L27.3632812,42.6931875 C29.3881875,43.4353125 31.686,43.8149063 34.0730625,43.8149063 C35.33025,43.8149063 36.6120937,43.7099063 37.891125,43.4976563 C41.6715,42.8701875 45.1712812,41.3487188 47.7458437,39.213375 C47.9383125,39.0537188 48.0315,38.8037813 47.990625,38.5570313 L47.990625,38.5570313 Z M37.0667812,38.5310625 C39.4364062,38.137875 41.8077187,38.1368437 43.9864687,38.5088437 L30.5109375,40.7453437 C32.4526875,39.6894375 34.69725,38.9243437 37.0667812,38.5310625 L37.0667812,38.5310625 Z M35.3848125,32.07525 C33.7564687,33.4726875 32.0250937,34.6685625 30.25725,35.6146875 L32.8839375,32.347125 L35.3848125,32.07525 Z M38.1891563,20.3729063 C40.05075,18.6579375 42.0623438,17.21325 44.134875,16.1069063 L38.4889688,23.1302813 L38.1891563,20.3729063 Z M36.9100313,21.618375 L37.2429375,24.68025 L35.7615,26.5231875 L35.4079687,23.2712812 C35.8929375,22.7001562 36.3944062,22.1487187 36.9100312,21.618375 L36.9100313,21.618375 Z M34.162875,24.8303438 L34.5154688,28.0731563 L31.9708125,31.2387188 C31.970625,31.2389063 31.9704375,31.2391875 31.9701563,31.2394688 L29.157375,34.7385 C30.108375,31.3515938 31.8298125,27.9350625 34.162875,24.8303438 L34.162875,24.8303438 Z M24.703125,17.2362187 L24.703125,3.6001875 C26.5883438,7.75078125 27.6639375,12.6376875 27.792375,17.7103125 L24.703125,20.7995625 L24.703125,17.2366875 C24.703125,17.2365 24.703125,17.2363125 24.703125,17.2362187 L24.703125,17.2362187 Z M27.55875,23.204625 L24.703125,26.0601562 L24.703125,22.7882813 L27.793875,19.6975313 C27.7660313,20.8787812 27.6875625,22.0501875 27.55875,23.204625 L27.55875,23.204625 Z M24.703125,28.048875 L27.2288438,25.5231562 C26.7136875,28.501125 25.861125,31.3288125 24.703125,33.878625 L24.703125,28.048875 Z M23.296875,17.5276875 L23.296875,20.7995625 L20.2073437,17.7100313 C20.2332187,16.6765313 20.2981875,15.6490313 20.4015937,14.6324063 L23.296875,17.5276875 Z M20.2062187,19.6975313 L23.296875,22.7882813 L23.296875,33.878625 C21.4030312,29.7087188 20.3264062,24.7952812 20.2062187,19.6975313 Z M18.8428125,34.7385 L13.4847187,28.0731563 L13.8373125,24.8303438 C16.1704687,27.9351563 17.8918125,31.3515938 18.8428125,34.7385 Z M12.5922188,23.271375 L12.2386875,26.5232813 L10.75725,24.6803438 L11.0901562,21.618375 C11.6057812,22.1487188 12.10725,22.7001563 12.5922188,23.271375 L12.5922188,23.271375 Z M3.8653125,16.1069062 C5.93784375,17.21325 7.9494375,18.6578437 9.81103125,20.3729062 L9.51121875,23.1302812 L3.8653125,16.1069062 Z M8.44584375,27.7605 C5.77021875,24.4320937 3.80934375,20.692125 2.76928125,16.987875 L9.4785,25.3339687 C9.4786875,25.33425 9.478875,25.3344375 9.4790625,25.3347187 L12.2061562,28.7271562 L12.2063437,28.7273437 L13.8702187,30.7971562 L10.8812812,30.4722187 C10.02975,29.6232187 9.214875,28.7170312 8.44584375,27.7605 L8.44584375,27.7605 Z M12.612,32.074875 L15.11625,32.347125 L17.746875,35.6195625 C15.9718125,34.6720312 14.2416562,33.4759687 12.612,32.074875 Z M10.3393125,42.1104375 C7.9696875,41.7171562 5.72521875,40.9520625 3.783375,39.8961562 L17.2590937,42.1325625 C15.0803437,42.5046562 12.7089375,42.5037187 10.3393125,42.1104375 L10.3393125,42.1104375 Z M37.660875,42.1104375 C35.29125,42.503625 32.9199375,42.5046562 30.7411875,42.1325625 L44.2167187,39.8961562 C42.2749687,40.9520625 40.0304062,41.7170625 37.660875,42.1104375 L37.660875,42.1104375 Z" id="Shape"></path>
                </g>
            </g>
        </g>
    </g>
</svg>