<?xml version="1.0" encoding="UTF-8"?>
<svg width="49px" height="48px" viewBox="0 0 49 48" version="1.1" xmlns="http://www.w3.org/2000/svg" xmlns:xlink="http://www.w3.org/1999/xlink">
    <!-- Generator: Sketch 62 (91390) - https://sketch.com -->
    <title>001-difference copy</title>
    <desc>Created with Sketch.</desc>
    <g id="Page-1" stroke="none" stroke-width="1" fill="none" fill-rule="evenodd">
        <g id="Home-Theme-01" transform="translate(-695.000000, -1775.000000)" fill="#1D7260" fill-rule="nonzero">
            <g id="Main-Features-Section" transform="translate(0.000000, 1645.000000)">
                <g id="001-difference-copy" transform="translate(695.000000, 130.000000)">
                    <path d="M22.3534304,15.9304834 L22.3534304,20.0816008 C20.91658,20.4807692 19.95842,21.6782744 19.95842,23.1954262 L19.95842,24.4724532 L16.6851611,27.745712 C16.2060811,28.2247921 15.966736,28.7837838 15.966736,29.4222973 L15.966736,34.6913982 C15.966736,35.1704782 16.1265592,35.6491684 16.3659044,36.0483368 L19.1600832,40.1998441 L19.1600832,41.5571726 L17.5634096,41.5571726 L17.5634096,47.9438669 L19.1600832,47.9438669 L19.1600832,46.3471933 L24.7484407,46.3471933 L24.7484407,44.7505198 L19.1600832,44.7505198 L19.1600832,43.1538462 L29.5384615,43.1538462 L29.5384615,47.9438669 L31.1351351,47.9438669 L31.1351351,41.5571726 L29.5384615,41.5571726 L29.5384615,40.2797557 L30.41671,39.4015073 C30.89579,38.9224272 31.1351351,38.3638254 31.1351351,37.724922 L31.1351351,35.489735 L32.2527287,34.3721414 C33.1309771,33.493893 33.2108887,32.1365644 32.412552,31.1787942 L26.3451143,23.6741164 L26.3451143,23.1954262 C26.3451143,21.758186 25.3869543,20.4807692 23.950104,20.0816008 L23.950104,15.9304834 C28.3409563,15.4514034 31.5343035,11.539631 31.0552235,7.22869023 C30.5761435,2.91735967 26.7442827,-0.355509356 22.3534304,0.0436590437 C17.962578,0.442827443 14.7692308,4.43451143 15.2483108,8.82536383 C15.5675676,12.5773129 18.6010915,15.6112266 22.3534304,15.9304834 L22.3534304,15.9304834 Z M31.1351351,33.254158 L30.3367983,34.0524948 L29.1392931,32.8549896 L30.7359667,31.6574844 L31.1351351,32.1365644 C31.4543919,32.4558212 31.4543919,32.9349012 31.1351351,33.254158 Z M26.7442827,30.4599792 L28.6602131,29.0231289 L29.7778067,30.3804574 L28.0216996,31.6574844 L26.7442827,30.4599792 Z M27.6225312,27.8256238 L26.3451143,28.7837838 L26.3451143,26.2289502 L27.6225312,27.8256238 Z M24.7484407,23.1954262 L24.7484407,30.6997142 L29.5384615,35.489735 L29.5384615,37.724922 C29.5384615,37.964657 29.4585499,38.1240904 29.2991164,38.2839137 L27.9417879,39.6408524 L27.9417879,41.5571726 L20.7567568,41.5571726 L20.7567568,39.720764 L17.7232328,35.1704782 C17.6433212,35.0106549 17.5634096,34.8508316 17.5634096,34.6913982 L17.5634096,29.4222973 C17.5634096,29.1829522 17.6433212,29.0231289 17.8027547,28.8633056 L19.95842,26.7080302 L19.95842,29.741554 C19.95842,29.981289 19.8785083,30.1407224 19.7190748,30.3005458 L18.6010915,31.4181393 L19.7190748,32.5357328 L20.8366684,31.4181393 C21.3157484,30.9390592 21.5550936,30.3804574 21.5550936,29.741554 L21.5550936,23.1954262 C21.5550936,22.3171778 22.2735187,21.5987526 23.1517672,21.5987526 C24.0300156,21.5987526 24.7484407,22.3171778 24.7484407,23.1954262 L24.7484407,23.1954262 Z M23.1517672,1.64033264 C26.6643711,1.64033264 29.5384615,4.51403326 29.5384615,8.02702703 C29.5384615,11.539631 26.6643711,14.4137214 23.1517672,14.4137214 C19.6391632,14.4137214 16.7650728,11.539631 16.7650728,8.02702703 C16.7650728,4.51403326 19.6391632,1.64033264 23.1517672,1.64033264 L23.1517672,1.64033264 Z" id="Shape"></path>
                    <polygon id="Path" points="42.5511955 14.9723233 43.6691787 13.8547298 41.8327703 12.018711 43.6691787 10.1823025 42.5511955 9.06470899 40.7151767 10.9007277 38.879158 9.06470899 37.7611747 10.1823025 39.5975831 12.018711 37.7611747 13.8547298 38.879158 14.9723233 40.7151767 13.1363046"></polygon>
                    <polygon id="Path" points="26.3451143 44.7505198 27.9417879 44.7505198 27.9417879 46.3471933 26.3451143 46.3471933"></polygon>
                    <path d="M43.1101871,26.0691268 L43.1101871,24.7920998 C43.1101871,23.754028 42.4716735,22.8757796 41.5135135,22.5565228 L41.5135135,18.3254938 C45.0261175,17.8464138 47.5010395,14.6530666 47.0219595,11.2203742 C46.5428795,7.70738046 43.3495323,5.23284823 39.9168399,5.71153846 C36.4042359,6.19061848 33.9293139,9.38396567 34.4083939,12.8170478 C34.8075623,15.6907484 37.0427495,18.006237 39.9168399,18.3254938 L39.9168399,22.5565228 C38.9586799,22.8757796 38.3201663,23.754028 38.3201663,24.7920998 L38.3201663,25.989605 L35.2067307,28.6239605 C34.6477391,29.0231289 34.3284823,29.6616424 34.3284823,30.3804574 L34.3284823,34.0524948 C34.3284823,34.6114865 34.5678275,35.1704782 34.887474,35.6491684 L37.5218295,38.6830821 L37.5218295,39.960499 L35.9251559,39.960499 L35.9251559,47.9438669 L37.5218295,47.9438669 L37.5218295,44.7505198 L43.9085239,44.7505198 L43.9085239,43.1538462 L37.5218295,43.1538462 L37.5218295,41.5571726 L45.5051975,41.5571726 L45.5051975,47.9438669 L47.1018711,47.9438669 L47.1018711,39.960499 L45.5051975,39.960499 L45.5051975,38.7629938 L46.8625259,37.8847453 C47.5010395,37.4056653 47.9002079,36.6872401 47.9002079,35.8889034 L47.9002079,34.4516632 L48.3792879,33.0947246 C48.6985447,32.2164761 48.4591995,31.258316 47.8202963,30.6198025 L43.1101871,26.0691268 Z M46.8625259,32.6955562 L46.7027027,33.1746362 L45.1859407,32.1365644 L45.7445427,30.9390592 L46.6227911,31.8173077 C46.8625259,32.0566528 46.9420479,32.3762994 46.8625259,32.6955562 L46.8625259,32.6955562 Z M44.5470375,29.741554 L43.8286123,31.1787942 L43.1101871,30.7796258 L43.1101871,28.3047038 L44.5470375,29.741554 Z M35.9251559,12.018711 C35.9251559,9.38396567 38.0808212,7.22869023 40.7151767,7.22869023 C43.3495323,7.22869023 45.5051975,9.38396567 45.5051975,12.018711 C45.5051975,14.6530666 43.3495323,16.8087318 40.7151767,16.8087318 C38.0808212,16.8087318 35.9251559,14.6530666 35.9251559,12.018711 Z M46.3035343,35.8889034 C46.3035343,36.1282484 46.1437111,36.3679834 45.9842775,36.5274168 L43.9085239,37.964657 L43.9085239,39.960499 L39.1185031,39.960499 L39.1185031,38.0441788 L36.0849792,34.6114865 C35.9251559,34.4516632 35.9251559,34.2922298 35.9251559,34.0524948 L35.9251559,30.3804574 C35.9251559,30.1407224 36.0050675,29.9013774 36.2444127,29.741554 L38.3201663,27.985447 L38.3201663,30.4599792 C38.3201663,30.6997142 38.2402547,30.8591476 38.0808212,31.0189709 L36.9628379,32.1365644 L38.0808212,33.254158 L39.1984147,32.1365644 C39.6774948,31.6574844 39.9168399,31.0988826 39.9168399,30.4599792 L39.9168399,24.7920998 C39.9168399,24.3130198 40.2360967,23.993763 40.7151767,23.993763 C41.1942567,23.993763 41.5135135,24.3130198 41.5135135,24.7920998 L41.5135135,31.5779626 L46.3035343,34.7713098 L46.3035343,35.8889034 Z" id="Shape"></path>
                    <polygon id="Path" points="26.904106 5.39228168 25.7861227 4.2746882 20.7567568 9.30405405 19.7190748 8.26637219 18.6010915 9.38396567 20.7567568 11.539631"></polygon>
                    <polygon id="Path" points="8.22271315 14.9723233 9.34069642 13.8547298 7.50428797 12.018711 9.34069642 10.1823025 8.22271315 9.06470899 6.38669439 10.9007277 4.55067563 9.06470899 3.43269236 10.1823025 5.26910081 12.018711 3.43269236 13.8547298 4.55067563 14.9723233 6.38669439 13.1363046"></polygon>
                    <path d="M3.19334719,38.6830821 L3.19334719,39.960499 L1.5966736,39.960499 L1.5966736,47.9438669 L3.19334719,47.9438669 L3.19334719,44.7505198 L9.58004158,44.7505198 L9.58004158,43.1538462 L3.19334719,43.1538462 L3.19334719,41.5571726 L11.1767152,41.5571726 L11.1767152,47.9438669 L12.7733888,47.9438669 L12.7733888,39.960499 L11.1767152,39.960499 L11.1767152,38.7629938 L12.5340436,37.8847453 C13.1725572,37.4056653 13.5717256,36.6872401 13.5717256,35.8889034 L13.5717256,34.4516632 L14.0508056,33.0947246 C14.3700624,32.2164761 14.1307172,31.258316 13.491814,30.6198025 L8.78170478,26.0691268 L8.78170478,24.7920998 C8.78170478,23.754028 8.14319122,22.8757796 7.18503119,22.5565228 L7.18503119,18.3254938 C10.6976352,17.8464138 13.1725572,14.6530666 12.6934772,11.2203742 C12.2143971,7.78729207 9.10096156,5.23284823 5.58835759,5.71153846 C2.07575361,6.11070686 -0.399168399,9.30405405 0.0799116175,12.8170478 C0.479080017,15.6907484 2.71426718,18.006237 5.58835759,18.3254938 L5.58835759,22.5565228 C4.63019756,22.8757796 3.99168399,23.754028 3.99168399,24.7920998 L3.99168399,25.989605 L0.878248416,28.6239605 C0.319256782,29.0231289 0,29.6616424 0,30.3804574 L0,34.0524948 C0,34.6114865 0.239345164,35.1704782 0.558991634,35.6491684 L3.19334719,38.6830821 Z M12.5340436,32.6955562 L12.3742204,33.1746362 L10.8574584,32.1365644 L11.4160603,30.9390592 L12.2943088,31.8173077 C12.5340436,32.0566528 12.6135655,32.3762994 12.5340436,32.6955562 L12.5340436,32.6955562 Z M10.2185551,29.741554 L9.50012996,31.1787942 L8.78170478,30.7796258 L8.78170478,28.3047038 L10.2185551,29.741554 Z M1.5966736,12.018711 C1.5966736,9.38396567 3.75233883,7.22869023 6.38669439,7.22869023 C9.02104995,7.22869023 11.1767152,9.38396567 11.1767152,12.018711 C11.1767152,14.6530666 9.02104995,16.8087318 6.38669439,16.8087318 C3.75233883,16.8087318 1.5966736,14.6530666 1.5966736,12.018711 Z M1.5966736,30.3804574 C1.5966736,30.1407224 1.67658521,29.9013774 1.91593038,29.741554 L3.99168399,28.0649688 L3.99168399,30.5398908 C3.99168399,30.7796258 3.91177237,30.9390592 3.75233883,31.0988826 L2.63435556,32.2164761 L3.75233883,33.3340696 L4.86993241,32.2164761 C5.34901242,31.737396 5.58835759,31.1787942 5.58835759,30.5398908 L5.58835759,24.7920998 C5.58835759,24.3130198 5.90761437,23.993763 6.38669439,23.993763 C6.8657744,23.993763 7.18503119,24.3130198 7.18503119,24.7920998 L7.18503119,31.5779626 L11.975052,34.7713098 L11.975052,35.8889034 C11.975052,36.1282484 11.8152287,36.3679834 11.6557952,36.5274168 L9.58004158,37.964657 L9.58004158,39.960499 L4.79002079,39.960499 L4.79002079,38.0441788 L1.75649683,34.6114865 C1.67658521,34.4516632 1.5966736,34.2922298 1.5966736,34.0524948 L1.5966736,30.3804574 Z" id="Shape"></path>
                </g>
            </g>
        </g>
    </g>
</svg>